<?xml version="1.0" encoding="UTF-8"?>
<svg width="179px" height="40px" viewBox="0 0 179 40" version="1.1" xmlns="http://www.w3.org/2000/svg" xmlns:xlink="http://www.w3.org/1999/xlink">
  <title>Logo</title>
  <g stroke="none" stroke-width="1" fill="none" fill-rule="evenodd">
    <g transform="translate(-130.000000, -19.000000)">
      <g>
        <g transform="translate(130.000000, 19.000000)">
          <path
            d="M64.0753101,18.2487075 C64.0391485,15.8505215 62.4209162,13.8214966 59.8100475,13.8214966 C57.0518202,13.8214966 55.1406788,15.4813605 54.5892141,18.2487075 L64.0753101,18.2487075 Z M68.1932141,27.6926984 C67.2005778,28.540771 64.3329616,30.0165079 60.1409263,30.0165079 C53.9274566,30.0165079 49.7354212,26.1434921 49.7354212,20.0926984 C49.7354212,14.3385034 53.9274566,10.0591383 59.7738859,10.0591383 C65.8770626,10.0591383 68.8920374,14.7067574 68.8920374,20.019229 L68.8920374,21.864127 L54.5892141,21.864127 C55.1036131,25.3679819 58.2659465,26.1797732 61.2076939,26.1797732 C64.0753101,26.1797732 66.0976485,24.9988209 66.7964717,24.3348753 L68.1932141,27.6926984 Z M72.4964465,24.1873923 C73.6364414,25.2948753 75.9164313,26.4377324 77.6811182,26.4377324 C78.8202091,26.4377324 80.1437242,25.9579138 80.1437242,24.2989569 C80.1437242,21.7901134 72.0552747,20.5356916 72.0552747,15.592381 C72.0552747,12.6780952 74.6290778,9.98512472 78.5996232,9.98512472 C82.0566737,9.98512472 84.1522394,11.4236735 85.0345828,12.1248073 L83.3060576,15.4454422 C82.9751788,15.0762812 81.2475576,13.6368254 79.4458051,13.6368254 C78.1955172,13.6368254 77.1296535,14.2644898 77.1296535,15.3338776 C77.1296535,18.2118821 85.0716485,18.8023583 85.0716485,24.1139229 C85.0716485,27.7665306 82.3134212,30.0531519 78.011997,30.0531519 C74.6661434,30.0531519 72.2387949,28.762449 70.7317596,27.655873 L72.4964465,24.1873923 Z M97.7198066,30.0166893 C91.9836702,30.0166893 87.5348874,25.6266667 87.5348874,20.0928798 C87.5348874,14.5228118 91.9836702,10.0584127 97.8291955,10.0584127 C103.565332,10.0584127 107.903822,14.6334694 107.903822,20.0928798 C107.903822,25.5531973 103.418877,30.0166893 97.7198066,30.0166893 Z M102.830347,20.0928798 C102.830347,16.5146485 100.551261,13.9695238 97.8291955,13.9695238 C94.8142207,13.9695238 92.5722005,16.5146485 92.5722005,20.2035374 C92.5722005,23.7082993 95.0348066,26.253424 97.6827409,26.253424 C100.770943,26.253424 102.830347,23.7817687 102.830347,20.0928798 Z M147.432898,29.4630385 L147.432898,10.6122449 L152.21256,10.6122449 L152.21256,13.600907 C152.653731,12.6412698 154.124605,10.0952381 156.330464,10.0952381 C158.021923,10.0952381 158.941332,10.5750567 159.713383,11.0185941 L158.058085,15.5555556 C157.470459,15.1492063 156.661342,14.5968254 155.484282,14.5968254 C153.352555,14.5968254 152.21256,17.1791383 152.21256,19.0603175 L152.21256,29.4630385 L147.432898,29.4630385 Z M174.78898,29.5368707 L174.421035,27.544127 C172.913096,29.3155556 171.038116,30.0166893 169.199298,30.0166893 C164.860808,30.0166893 160.485253,26.2171429 160.485253,20.0194104 C160.485253,13.5631746 165.191687,10.0593197 171.406061,10.0593197 C174.604556,10.0593197 177.288652,10.9817687 178.869818,11.8298413 L178.869818,29.5368707 L174.78898,29.5368707 Z M174.053091,14.6334694 C173.28104,14.3386848 172.251338,14.0429932 171.075182,14.0429932 C168.206662,14.0429932 165.596697,15.8135147 165.596697,19.8343764 C165.596697,22.7486621 166.956374,26.0321088 170.266066,26.0321088 C172.104884,26.0321088 173.465465,25.0361905 174.053091,24.0030839 L174.053091,14.6334694 Z M144.379954,14.4487982 L139.709681,14.4487982 L139.709681,22.7862132 C139.709681,26.4016327 141.695858,26.475102 144.049075,26.5113832 L142.211161,29.9798639 C138.386166,29.9798639 134.893858,29.057415 134.893858,23.5608163 L134.893858,14.4487982 L131.58507,14.4487982 L131.58507,10.6492517 L134.893858,10.6492517 L134.893858,9.08825397 L139.698832,4.26739229 L139.709681,4.26739229 L139.709681,10.6492517 L144.379954,10.6492517 L144.379954,14.4487982 Z M119.855236,10.0591383 C125.149296,10.0591383 130.077221,13.342585 130.077221,19.9829478 C130.077221,25.1838549 126.804594,29.9793197 120.921099,29.9793197 C119.45113,29.9793197 117.502019,29.279093 116.251731,28.356644 L116.251731,34.0836281 L111.480206,38.8700227 L111.435004,38.8700227 L111.435004,12.1616327 C114.082938,10.7230839 117.244367,10.0591383 119.855236,10.0591383 Z M120.554059,25.9956463 C122.943438,25.9956463 124.965776,23.6346485 124.965776,20.019229 C124.965776,16.6251247 122.943438,14.08 119.487291,14.08 C118.384362,14.08 117.024685,14.3385034 116.251731,14.817415 L116.251731,23.8559637 C117.539084,25.6636735 118.972892,25.9956463 120.554059,25.9956463 Z"
            fill="#FFFFFF"></path>
          <path
            d="M19.8841879,39.9997279 C14.5702384,39.9997279 9.57451111,37.9235374 5.81731919,34.1548299 C-1.93934747,26.3752381 -1.93934747,13.7149206 5.81731919,5.9353288 C9.57541515,2.16662132 14.5702384,0.090430839 19.8841879,0.090430839 C25.1981374,0.090430839 30.1938646,2.16662132 33.9519606,5.9353288 C35.0295768,7.018322 35.0295768,8.77251701 33.9510566,9.8555102 L21.8378192,22.0051701 C20.759299,23.0872562 19.0090768,23.0872562 17.9305566,22.0051701 C16.8511323,20.9221769 16.8520364,19.1679819 17.9305566,18.0849887 L27.9039303,8.08226757 C25.5534253,6.48952381 22.7843495,5.63328798 19.8841879,5.63328798 C16.0465364,5.63328798 12.4385111,7.13260771 9.72548586,9.85460317 C4.12314747,15.4736508 4.12314747,24.6165079 9.72458182,30.2355556 C12.4385111,32.957551 16.0456323,34.4568707 19.8841879,34.4568707 C23.7218394,34.4568707 27.3298646,32.957551 30.0437939,30.2355556 C32.7459707,27.5244444 34.2412535,23.9199093 34.252102,20.0858957 C34.2557182,18.558458 35.4924455,17.3221769 37.0148495,17.3230839 L37.0202737,17.3230839 C38.5490061,17.326712 39.7821172,18.5711565 39.777597,20.1022222 C39.7622283,25.4110658 37.6928798,30.401542 33.9510566,34.155737 C30.1938646,37.9235374 25.1981374,39.9997279 19.8841879,39.9997279"
            fill="#43EF1F"></path>
        </g>
      </g>
    </g>
  </g>
</svg>
